<svg width="24" height="24" viewBox="0 0 24 24" fill="none" xmlns="http://www.w3.org/2000/svg">
<circle cx="12" cy="12" r="8" fill="#FEFEFE"/>
<path d="M4.23676 18.5811L4.24005 18.583L10.18 22.013L10.1801 22.013C11.3056 22.6628 12.6952 22.6615 13.8281 22.0141L13.8282 22.0141L13.8304 22.0128L19.7601 18.583C19.7602 18.583 19.7603 18.5829 19.7604 18.5828C20.8858 17.933 21.5801 16.7275 21.5801 15.42V8.58C21.5801 7.28081 20.8846 6.07774 19.7634 5.41891L19.7601 5.41701L13.8201 1.98701L13.8201 1.98698C12.6946 1.33722 11.3049 1.3385 10.172 1.98587L10.17 1.98701L4.23009 5.41698C3.1045 6.06681 2.41008 7.27239 2.41008 8.58L2.41006 15.42L2.4101 15.4244C2.42166 16.7311 3.11611 17.9226 4.23676 18.5811ZM12.1878 7.29154L12.1877 7.29171L12.2006 7.29667C12.2518 7.31637 12.2963 7.34312 12.355 7.39355C12.398 7.44458 12.4365 7.50366 12.4738 7.57571C12.4898 7.61979 12.5001 7.67729 12.5001 7.75C12.5001 7.88088 12.4507 8.00749 12.3648 8.098C12.3011 8.15394 12.2546 8.18256 12.2006 8.20333L12.191 8.20701L12.1816 8.21107C12.0071 8.28654 11.7904 8.24603 11.6521 8.11468C11.5961 8.05105 11.5675 8.00451 11.5468 7.95051L11.5469 7.95044L11.5416 7.93769C11.5129 7.86884 11.5001 7.80415 11.5001 7.75C11.5001 7.69585 11.5129 7.63116 11.5416 7.56231C11.5676 7.50004 11.6037 7.44115 11.6526 7.38476C11.7442 7.29757 11.8623 7.25 12.0001 7.25C12.0542 7.25 12.1189 7.26285 12.1878 7.29154ZM12.2501 16.25C12.2501 16.3839 12.1339 16.5 12.0001 16.5C11.8662 16.5 11.7501 16.3839 11.7501 16.25L11.7501 11C11.7501 10.8661 11.8662 10.75 12.0001 10.75C12.1339 10.75 12.2501 10.8661 12.2501 11L12.2501 16.25Z" fill="#FBBC05" stroke="#30353E"/>
</svg>
