<svg width="36" height="37" viewBox="0 0 36 37" fill="none" xmlns="http://www.w3.org/2000/svg">
<rect y="0.5" width="36" height="36" rx="18" fill="#2D2D2D"/>
<path d="M25.1834 15.5413C24.3084 11.6913 20.9501 9.95801 18.0001 9.95801C18.0001 9.95801 18.0001 9.95801 17.9917 9.95801C15.0501 9.95801 11.6834 11.683 10.8084 15.533C9.83341 19.833 12.4667 23.4747 14.8501 25.7663C15.7334 26.6163 16.8667 27.0413 18.0001 27.0413C19.1334 27.0413 20.2667 26.6163 21.1417 25.7663C23.5251 23.4747 26.1584 19.8413 25.1834 15.5413ZM18.0001 19.7163C16.5501 19.7163 15.3751 18.5413 15.3751 17.0913C15.3751 15.6413 16.5501 14.4663 18.0001 14.4663C19.4501 14.4663 20.6251 15.6413 20.6251 17.0913C20.6251 18.5413 19.4501 19.7163 18.0001 19.7163Z" fill="#BABABA"/>
</svg>
