<svg width="16" height="16" viewBox="0 0 16 16" fill="none" xmlns="http://www.w3.org/2000/svg">
<path d="M12.7602 13.5C12.6335 13.5 12.5068 13.4533 12.4068 13.36C12.2068 13.1667 12.2068 12.8533 12.4002 12.6533C13.5402 11.4933 14.1668 9.96 14.1668 8.33334C14.1668 4.93334 11.4002 2.16667 8.00016 2.16667C4.60016 2.16667 1.8335 4.93334 1.8335 8.33334C1.8335 9.95334 2.4535 11.48 3.58683 12.64C3.78017 12.84 3.77349 13.1533 3.58016 13.3467C3.38016 13.54 3.06683 13.5333 2.87349 13.34C1.56016 11.9933 0.833496 10.2133 0.833496 8.33334C0.833496 4.38001 4.04683 1.16667 8.00016 1.16667C11.9535 1.16667 15.1668 4.38001 15.1668 8.33334C15.1668 10.22 14.4402 12.0067 13.1135 13.3533C13.0202 13.4533 12.8868 13.5 12.7602 13.5Z" fill="#A3A3A3"/>
<path d="M8.00008 14.8333C6.48675 14.8333 5.25342 13.6 5.25342 12.0867C5.25342 10.5733 6.48675 9.33333 8.00008 9.33333C9.51341 9.33333 10.7467 10.5667 10.7467 12.08C10.7467 13.5933 9.51341 14.8333 8.00008 14.8333ZM8.00008 10.3333C7.03341 10.3333 6.25342 11.12 6.25342 12.08C6.25342 13.04 7.04008 13.8267 8.00008 13.8267C8.96008 13.8267 9.74674 13.04 9.74674 12.08C9.74674 11.12 8.96675 10.3333 8.00008 10.3333Z" fill="#A3A3A3"/>
<path d="M10.6665 8.5H10.1665C9.61317 8.5 9.1665 8.05333 9.1665 7.5V7C9.1665 6.17333 9.83984 5.5 10.6665 5.5C11.4932 5.5 12.1665 6.17333 12.1665 7C12.1665 7.82667 11.4932 8.5 10.6665 8.5ZM10.6665 6.5C10.3932 6.5 10.1665 6.72667 10.1665 7V7.5H10.6665C10.9398 7.5 11.1665 7.27333 11.1665 7C11.1665 6.72667 10.9398 6.5 10.6665 6.5Z" fill="#A3A3A3"/>
</svg>
